<svg xmlns="http://www.w3.org/2000/svg" width="134.043" height="112.358" viewBox="0 0 134.043 112.358"><defs><style>.a{fill:#fff;}</style></defs><g transform="translate(0 -41.416)"><g transform="translate(0 41.416)"><path class="a" d="M133.892,151.054l-3.613-8.672-.008-.02L101.363,72.985a1.963,1.963,0,0,0-1.812-1.208H90A1.964,1.964,0,0,0,90,75.7h8.244l27.278,65.469h-60.8L37.438,75.7H90c1.085,0-1.964-.879-1.964-1.964S91.083,71.776,90,71.776H36.456V62.691H58.347a1.964,1.964,0,0,0,1.964-1.964V45.548a1.964,1.964,0,0,0-1.964-1.964H36.456v-.2a1.964,1.964,0,1,0-3.927,0V73.347l-22.668,54.4L.548,137.437a1.963,1.963,0,0,0,.027,2.749l2.9,2.9-3.321,7.97a1.964,1.964,0,0,0,1.812,2.719H132.079a1.964,1.964,0,0,0,1.812-2.719ZM36.456,47.512H56.384V58.764H36.456ZM4.909,149.846l1.566-3.759,3.759,3.759Zm9.381-1.5L7.2,141.254l-.013-.013-2.471-2.47,23.943-24.9Zm3.63,1.5,16.572-39.773,16.572,39.773Zm37.4,0L36.305,104.213v0a1.938,1.938,0,0,0-.121-.238l-.028-.046a1.912,1.912,0,0,0-.135-.19L36,103.709a1.991,1.991,0,0,0-.146-.157l-.029-.026-.05-.043a2.052,2.052,0,0,0-.165-.128l-.041-.029a1.935,1.935,0,0,0-.224-.127l-.034-.015a1.95,1.95,0,0,0-.214-.083l-.046-.015a1.949,1.949,0,0,0-.249-.057l-.048-.006a1.963,1.963,0,0,0-.229-.017l-.032,0h-.015a1.937,1.937,0,0,0-.255.019l-.057.009a1.922,1.922,0,0,0-.229.052l-.025.007a1.95,1.95,0,0,0-.241.094l-.045.022a1.983,1.983,0,0,0-.2.116l-.024.015a1.966,1.966,0,0,0-.2.156l-.046.044c-.024.023-.049.044-.073.068L17.368,119.945,32.529,83.558v7.531a1.964,1.964,0,1,0,3.927,0V83.558l25.138,60.332.008.019,2.474,5.938Zm13.011,0L66.352,145.1h60.8l1.978,4.747Z" transform="translate(0 -41.416)"/></g></g></svg>