<svg xmlns="http://www.w3.org/2000/svg" width="140.24" height="111.563" viewBox="0 0 140.24 111.563"><defs><style>.a{fill:#fff;stroke:#fff;}</style></defs><g transform="translate(0.5 -49.164)"><path class="a" d="M362.05,164.212l-3.089,3.09a4.924,4.924,0,0,0-1.446,3.579,5.187,5.187,0,0,0,5.164,5.1,4.927,4.927,0,0,0,3.51-1.446l3.09-3.09,3.2,3.2a5.125,5.125,0,0,0,3.645,1.519,4.926,4.926,0,0,0,3.51-1.446,5.066,5.066,0,0,0-.073-7.155l-3.2-3.2,3.089-3.09a4.924,4.924,0,0,0,1.446-3.579,5.187,5.187,0,0,0-5.163-5.1,4.928,4.928,0,0,0-3.511,1.446l-3.09,3.09-3.2-3.2a5.125,5.125,0,0,0-3.645-1.519,4.937,4.937,0,0,0-4.956,5.025,5.134,5.134,0,0,0,1.518,3.576Zm-1.535-8.618a2.489,2.489,0,0,1,1.775-.727,2.688,2.688,0,0,1,1.91.8l4.065,4.065a1.227,1.227,0,0,0,1.735,0l3.957-3.958a2.492,2.492,0,0,1,1.775-.727,2.733,2.733,0,0,1,2.71,2.674,2.489,2.489,0,0,1-.727,1.811l-3.957,3.957a1.227,1.227,0,0,0,0,1.735l4.065,4.065a2.61,2.61,0,0,1,.073,3.685,2.49,2.49,0,0,1-1.775.727,2.688,2.688,0,0,1-1.91-.8l-4.065-4.065a1.227,1.227,0,0,0-1.735,0l-3.958,3.957a2.489,2.489,0,0,1-1.775.727,2.733,2.733,0,0,1-2.71-2.674,2.488,2.488,0,0,1,.727-1.811l3.957-3.957a1.227,1.227,0,0,0,0-1.735l-4.065-4.066a2.692,2.692,0,0,1-.8-1.874A2.487,2.487,0,0,1,360.515,155.594Z" transform="translate(-254.164 -73.083)"/><path class="a" d="M340.96,192.721c1.286.225,2.04.4,2.047.407a1.227,1.227,0,0,0,.575-2.386c-.033-.008-.828-.2-2.2-.438a1.227,1.227,0,0,0-.422,2.417Z" transform="translate(-241.795 -100.021)"/><path class="a" d="M272.137,187.983c-1.593.165-3.153.4-4.634.71a1.227,1.227,0,1,0,.5,2.4c1.4-.289,2.879-.516,4.392-.673a1.227,1.227,0,1,0-.253-2.441Z" transform="translate(-189.573 -98.378)"/><path class="a" d="M177.776,239.285q-1.731,1.439-3.506,2.9a1.227,1.227,0,0,0,1.557,1.9q1.783-1.464,3.517-2.912l-.777-.95Z" transform="translate(-123.636 -134.873)"/><path class="a" d="M118.3,283.235c-1.289.83-2.583,1.617-3.846,2.339a1.227,1.227,0,1,0,1.217,2.131c1.3-.743,2.633-1.553,3.958-2.407a1.227,1.227,0,1,0-1.329-2.063Z" transform="translate(-80.97 -165.995)"/><path class="a" d="M206.356,215.317c-1.1.84-2.281,1.772-3.614,2.851a1.227,1.227,0,0,0,1.545,1.907c1.314-1.064,2.478-1.983,3.559-2.808a1.227,1.227,0,1,0-1.49-1.95Z" transform="translate(-143.883 -117.646)"/><path class="a" d="M236.921,196.335a31.279,31.279,0,0,0-4.291,2.038,1.227,1.227,0,1,0,1.223,2.128,28.8,28.8,0,0,1,3.953-1.876,1.227,1.227,0,1,0-.886-2.289Z" transform="translate(-165.027 -104.265)"/><path class="a" d="M56.289,313.9c-.68.19-1.371.37-2.054.535a1.227,1.227,0,1,0,.577,2.385c.71-.172,1.429-.359,2.137-.557a1.227,1.227,0,0,0-.66-2.364Z" transform="translate(-37.908 -187.915)"/><path class="a" d="M55.525,187.6c.426-1.584-.616-3-1.719-4.506-.385-.525-.784-1.068-1.15-1.649-1.472-2.33-3.084-2.82-4.176-2.82-3.233,0-5.6,4.059-5.6,5.785,0,1.958,2.693,6.595,6.94,6.595a6.407,6.407,0,0,0,2.574-.562C53.548,189.944,55.123,189.1,55.525,187.6Zm-2.37-.637c-.033.125-.258.583-1.74,1.232a3.971,3.971,0,0,1-1.591.357c-2.749,0-4.486-3.312-4.486-4.139.02-.725,1.605-3.332,3.141-3.332.862,0,1.618.911,2.1,1.676.413.654.856,1.257,1.247,1.79C52.507,185.474,53.275,186.522,53.155,186.967Z" transform="translate(-30.503 -91.731)"/><path class="a" d="M129.662,59.6l-.041-.011L90.758,49.857a1.226,1.226,0,0,0-.572-.006L48.92,59.295l-37.046-9.3-.049-.011a14.219,14.219,0,0,0-2.874-.316c-3.287,0-8.82,1.5-8.951,11.579v77.913c0,5.257,3.486,9.322,9.563,11.153l.056.015,38.863,9.728a1.23,1.23,0,0,0,.572.006l41.267-9.444,37.034,9.285.049.011a14.264,14.264,0,0,0,2.884.317c3.288,0,8.822-1.5,8.953-11.562V70.753C139.241,65.49,135.66,61.319,129.662,59.6Zm7.124,89.053c-.079,6.054-2.265,9.124-6.5,9.124a11.8,11.8,0,0,1-2.361-.261l-37.294-9.35a1.235,1.235,0,0,0-.572-.006L48.793,157.6l-38.549-9.649c-2.922-.886-7.79-3.2-7.79-8.795v-77.9c.079-6.065,2.264-9.141,6.5-9.141a11.741,11.741,0,0,1,2.351.26l37.306,9.369a1.222,1.222,0,0,0,.573.006l41.267-9.444L129,61.96c2.357.681,7.782,2.892,7.782,8.793Z" transform="translate(0 0)"/><path class="a" d="M143.687,81.178l-.063-.018-37.992-9.51a1.23,1.23,0,0,0-.572-.006L63.793,81.089,26.087,71.65c-.03-.008-.06-.014-.09-.019a6.1,6.1,0,0,0-1.023-.092C23.49,71.539,21,72.223,21,76.8v77.913c0,3.43,3.046,4.6,4.347,5.106a1.229,1.229,0,0,0,.143.046l37.992,9.51a1.23,1.23,0,0,0,.572.006l41.267-9.444,37.706,9.437c.03.008.06.014.09.019a6.1,6.1,0,0,0,1.023.092c1.484,0,3.973-.684,3.973-5.263V86.312C148.114,82.541,144.782,81.515,143.687,81.178Zm1.973,5.134v57.656a22.8,22.8,0,0,0-29.047-.115,10.744,10.744,0,0,1-10.052,1.962v-38.4c.538.029,1.076.061,1.615.1.033,0,.065,0,.1,0a1.227,1.227,0,0,0,.094-2.45c-.6-.047-1.205-.083-1.807-.114V74.413l36.434,9.12C145.206,84.22,145.66,85.142,145.66,86.312Zm-41.553,70.961v.426l-39.1,8.948V143.625a48.743,48.743,0,0,0,9.229-6.891c4.093-3.652,6.18-5.346,8.884-3.923a44.809,44.809,0,0,1,6.586,5.012c4.173,3.53,9.166,7.75,14.4,9.765v9.685ZM91.29,135.949a45.845,45.845,0,0,0-7.027-5.309c-4.328-2.278-7.726.753-11.661,4.264a50.682,50.682,0,0,1-7.6,5.9V83.328l39.1-8.948v30.5c-.129,0-.26-.005-.389-.006a1.227,1.227,0,0,0-.016,2.454c.134,0,.27,0,.405.006v37.61C99.622,143,95.21,139.264,91.29,135.949ZM53.677,81.086l8.877,2.222v43.556a1.226,1.226,0,0,0-1.708-.2c-1.265.984-2.448,1.876-3.616,2.727a1.227,1.227,0,1,0,1.444,1.984c1.189-.866,2.392-1.773,3.678-2.773a1.2,1.2,0,0,0,.2-.2v13.738a27.407,27.407,0,0,1-6.809,2.242c-3.644.694-6.181-.078-7.755-2.361-4.015-5.822-.7-19.383,1.715-23.315,6.21-10.092,3.177-14.326-.034-18.808a27.261,27.261,0,0,1-2.783-4.483C44.062,89.262,53.483,81.25,53.677,81.086ZM23.454,154.715V76.8c0-2.809.988-2.809,1.52-2.809a3.551,3.551,0,0,1,.564.05L50.82,80.372c-2.831,2.737-9.064,9.751-6.163,16.065a29.207,29.207,0,0,0,3.018,4.887c2.958,4.129,5.294,7.39-.061,16.092-2.186,3.552-4.805,13.108-3.674,20.413a1.216,1.216,0,0,0-.831.07c-1.364.638-2.751,1.23-4.121,1.76a1.227,1.227,0,1,0,.885,2.289c1.423-.55,2.861-1.164,4.276-1.826a1.214,1.214,0,0,0,.254-.164,11.717,11.717,0,0,0,1.565,3.453c1.481,2.148,4.46,4.478,10.235,3.379a29.722,29.722,0,0,0,6.35-1.962v21.787l-36.392-9.109C24.164,156.725,23.454,155.99,23.454,154.715ZM144.14,167.033a3.558,3.558,0,0,1-.565-.05l-37.014-9.264v-9.36a14.631,14.631,0,0,0,3.39.415,12.871,12.871,0,0,0,8.187-3,20.128,20.128,0,0,1,15.233-4.5c5.272.641,9.97,3.385,11.713,5.641a1.219,1.219,0,0,0,.576.41v16.9C145.66,167.033,144.671,167.033,144.14,167.033Z" transform="translate(-14.937 -15.559)"/></g></svg>