<svg xmlns="http://www.w3.org/2000/svg" width="88.526" height="93.848" viewBox="0 0 88.526 93.848"><g transform="translate(-14.518)"><g transform="translate(33.207 18.046)"><path d="M139.3,108.374v-5.5h-3.027V98.452h-16.5v4.423h-3.3v5.5h8.662V164.4h-4.5v5.5h4.5v4.357h5.5V169.9h4.776v-5.5h-4.776V108.374Z" transform="translate(-116.478 -98.452)"/></g><g transform="translate(14.518)"><path d="M53,0h-16.5V.978c-5.492,2.5-17.174,7.914-19.2,9.617A7.819,7.819,0,0,0,27.362,22.57c1.409-1.183,5.574-6.619,9.144-11.421v1.4H53V0ZM23.826,18.359a2.32,2.32,0,0,1-2.989-3.55,98.525,98.525,0,0,1,9.843-5.057A106.333,106.333,0,0,1,23.826,18.359Z" transform="translate(-14.518)"/></g><g transform="translate(61.528 18.046)"><path d="M293.811,108.374v-5.5h-3.3V98.452h-16.5v4.423h-3.027v5.5h8.662V164.4h-4.776v5.5h4.776v4.357h5.5V169.9h4.5v-5.5h-4.5V108.374Z" transform="translate(-270.988 -98.452)"/></g><g transform="translate(64.554)"><path d="M325.959,15.9a7.767,7.767,0,0,0-2.761-5.309c-2.027-1.7-13.709-7.116-19.2-9.617V0H287.5V12.547H304v-1.4c3.57,4.8,7.735,10.238,9.144,11.421a7.761,7.761,0,0,0,5.015,1.832q.344,0,.692-.03a7.819,7.819,0,0,0,7.111-8.468Zm-6.013,2.17a2.32,2.32,0,0,1-3.268.286,106.272,106.272,0,0,1-6.854-8.607,98.764,98.764,0,0,1,9.838,5.053,2.319,2.319,0,0,1,.285,3.269Z" transform="translate(-287.5)"/></g></g></svg>