<svg xmlns="http://www.w3.org/2000/svg" width="121.649" height="112.612" viewBox="0 0 121.649 112.612"><g transform="translate(-0.001 -19.019)"><g transform="translate(0.001 33.528)"><g transform="translate(0 0)"><path d="M119.843,98.678c-15.778,0-31-4.814-45.714-9.47-11.751-3.717-23.9-7.561-35.96-8.747-13.621-1.34-25.788.9-37.2,6.86a1.807,1.807,0,1,0,1.672,3.2c24.022-12.54,46.548-5.415,70.4,2.129,14.979,4.738,30.467,9.638,46.8,9.638a1.807,1.807,0,1,0,0-3.613Z" transform="translate(-0.001 -80.086)"/></g></g><g transform="translate(18.239 106.928)"><path d="M179.2,396.247c-11.41-5.957-23.577-8.2-37.2-6.86-12.059,1.187-24.209,5.03-35.96,8.747-9.042,2.861-18.393,5.818-27.818,7.634a1.807,1.807,0,1,0,.684,3.548c9.632-1.856,19.084-4.846,28.224-7.737,23.848-7.544,46.373-14.669,70.4-2.129a1.807,1.807,0,0,0,1.672-3.2Z" transform="translate(-76.759 -389.012)"/></g><g transform="translate(0.001 124.6)"><g transform="translate(0)"><path d="M16.175,464.942a1.807,1.807,0,0,0-2.041-1.537,87.585,87.585,0,0,1-12.327.9,1.807,1.807,0,0,0,0,3.613,91.147,91.147,0,0,0,12.831-.939A1.807,1.807,0,0,0,16.175,464.942Z" transform="translate(-0.001 -463.388)"/></g></g><g transform="translate(18.978 83.712)"><path d="M85.678,291.3a5.8,5.8,0,1,0,5.8,5.8A5.811,5.811,0,0,0,85.678,291.3Zm0,8a2.191,2.191,0,1,1,2.191-2.191A2.194,2.194,0,0,1,85.678,299.3Z" transform="translate(-79.873 -291.299)"/></g><g transform="translate(61.192 83.712)"><path d="M263.348,291.3a5.8,5.8,0,1,0,5.8,5.8A5.811,5.811,0,0,0,263.348,291.3Zm0,8a2.191,2.191,0,1,1,2.191-2.191A2.194,2.194,0,0,1,263.348,299.3Z" transform="translate(-257.543 -291.299)"/></g><g transform="translate(44.595 74.763)"><path d="M192.748,253.633H189.5a1.807,1.807,0,1,0,0,3.613h3.252a1.807,1.807,0,1,0,0-3.613Z" transform="translate(-187.69 -253.633)"/></g><g transform="translate(19.665 48.146)"><g transform="translate(0 0)"><path d="M120.7,141.608H84.568a1.807,1.807,0,1,0,0,3.613H120.7a1.807,1.807,0,0,0,0-3.613Z" transform="translate(-82.761 -141.608)"/></g></g><g transform="translate(93.976 96.924)"><path d="M421.39,346.9H397.329a1.807,1.807,0,0,0,0,3.613H421.39a1.807,1.807,0,1,0,0-3.613Z" transform="translate(-395.522 -346.904)"/></g><g transform="translate(0.001 54.168)"><g transform="translate(0)"><path d="M89.761,209.709H75.151a10.987,10.987,0,0,0,2.752-5.824,6.534,6.534,0,0,0,4.794-7.126l-1.742-13.892a1.807,1.807,0,0,0-1.793-1.582H64.256l-1.607-12.751a1.807,1.807,0,0,0-1.792-1.581H15.932a1.807,1.807,0,0,0-1.8,1.655L13.048,181.5A6.637,6.637,0,0,0,8.1,187.909v8.732a7.479,7.479,0,0,0,5.78,7.272,10.988,10.988,0,0,0,2.748,5.795H1.809a1.807,1.807,0,1,0,0,3.613H89.761a1.807,1.807,0,1,0,0-3.613ZM48.209,170.566H59.262l1.351,10.718H48.21V170.566Zm-21.92,0h10.84v10.718H26.289Zm-8.7,0h5.083v10.718H16.692Zm7.191,39.142a7.407,7.407,0,1,1,7.407-7.407A7.415,7.415,0,0,1,24.784,209.709Zm8.153,0a10.991,10.991,0,0,0,2.717-5.6H56.128a10.991,10.991,0,0,0,2.716,5.6Zm34.061,0A7.407,7.407,0,1,1,74.4,202.3,7.415,7.415,0,0,1,67,209.709Zm0-18.427a11.036,11.036,0,0,0-10.87,9.214H35.654a11.019,11.019,0,0,0-21.677-.349,3.856,3.856,0,0,1-2.261-3.5v-8.732a3.014,3.014,0,0,1,3.011-3.011H38.935a1.807,1.807,0,0,0,1.807-1.807V170.567H44.6v12.525A1.807,1.807,0,0,0,46.4,184.9H77.568l.343,2.731H76.753a1.807,1.807,0,1,0,0,3.613h1.61l.748,5.966a2.885,2.885,0,0,1-.709,2.3,2.945,2.945,0,0,1-.62.529A11.038,11.038,0,0,0,67,191.282Z" transform="translate(-0.002 -166.953)"/></g></g><g transform="translate(97.353 19.019)"><path d="M423.345,22.632a1.807,1.807,0,0,0-1.807,1.807v3.715a2.19,2.19,0,0,1-2.187,2.187h-.285V20.826a1.807,1.807,0,1,0-3.613,0V39.49a2.188,2.188,0,0,1-2.1-2.183v-5.4a1.807,1.807,0,1,0-3.613,0v5.4a5.806,5.806,0,0,0,5.718,5.8V46.6a1.807,1.807,0,1,0,3.613,0V33.954h.285a5.807,5.807,0,0,0,5.8-5.8V24.439A1.807,1.807,0,0,0,423.345,22.632Z" transform="translate(-409.735 -19.019)"/></g><g transform="translate(80.489 21.428)"><g transform="translate(0 0)"><path d="M346.285,29.157a1.807,1.807,0,0,0-1.807,1.807V43.606a2.188,2.188,0,0,1-2.1-2.183v-5.4a1.807,1.807,0,0,0-3.613,0v5.4a5.806,5.806,0,0,0,5.718,5.8v3.495a1.807,1.807,0,1,0,3.613,0V30.964A1.807,1.807,0,0,0,346.285,29.157Z" transform="translate(-338.76 -29.157)"/></g></g><g transform="translate(86.479 122.481)"><path d="M367.449,455.588a1.806,1.806,0,1,0-.745,2.243A1.83,1.83,0,0,0,367.449,455.588Z" transform="translate(-363.97 -454.472)"/></g><g transform="translate(91.058 126.121)"><path d="M386.717,470.881A1.806,1.806,0,1,0,386,473.1,1.821,1.821,0,0,0,386.717,470.881Z" transform="translate(-383.24 -469.792)"/></g><g transform="translate(11.324 109.476)"><path d="M50.966,400.536a1.806,1.806,0,1,0-.172,2.227A1.819,1.819,0,0,0,50.966,400.536Z" transform="translate(-47.659 -399.736)"/></g><g transform="translate(17.346 107.067)"><path d="M76.312,390.4a1.807,1.807,0,1,0-.224,2.281A1.827,1.827,0,0,0,76.312,390.4Z" transform="translate(-73.002 -389.596)"/></g><g transform="translate(85.039 128.048)"><path d="M361.382,478.99a1.806,1.806,0,1,0-.745,2.243A1.821,1.821,0,0,0,361.382,478.99Z" transform="translate(-357.909 -477.9)"/></g><g transform="translate(15.184 112.608)"><path d="M66.271,413a1.806,1.806,0,1,0,1.24,1.715A1.826,1.826,0,0,0,66.271,413Z" transform="translate(-63.904 -412.915)"/></g></g></svg>