<svg xmlns="http://www.w3.org/2000/svg" width="112" height="57.146" viewBox="0 0 112 57.146"><defs><style>.a{fill:#ef3f4a;}.b{fill:#f68c1f;}.c{fill:#ffde00;}.d{fill:#029a45;}.e{fill:#046cb5;}.f{fill:#722784;}.g{fill:#283655;}</style></defs><g transform="translate(0.05 2.19)"><g transform="translate(-0.05 -2.19)"><path class="a" d="M129.5,29.818a28.9,28.9,0,0,1,57.8,0h3.106a32.006,32.006,0,1,0-64.013,0Z" transform="translate(-102.386 2.19)"/><path class="b" d="M145.866,44.862a25.8,25.8,0,0,1,51.588,0h3.1a28.9,28.9,0,0,0-57.8,0Z" transform="translate(-115.643 -12.854)"/><path class="c" d="M162.226,58.091a22.691,22.691,0,1,1,45.383,0h3.1a25.8,25.8,0,0,0-51.594,0Z" transform="translate(-128.897 -26.083)"/><path class="d" d="M178.554,69.562a19.584,19.584,0,1,1,39.167,0h3.1a22.692,22.692,0,1,0-45.383,0Z" transform="translate(-142.118 -37.555)"/><path class="e" d="M194.93,82.816a16.476,16.476,0,0,1,32.942,0h3.11a19.584,19.584,0,1,0-39.167,0Z" transform="translate(-155.384 -50.808)"/><path class="f" d="M211.326,97.772a13.371,13.371,0,0,1,26.729,0h3.106a16.476,16.476,0,0,0-32.942,0Z" transform="translate(-168.674 -65.765)"/><path class="g" d="M99.825,91.2c-8.2,3.165-16.933,4.557-25.66,6.006a66.522,66.522,0,0,0-10.6,2.239,15.15,15.15,0,0,0-3.367,1.3h-.017a8.371,8.371,0,0,0-3,2.991c-.414.57-.815,1.1-1.223,1.654l-1.221-1.654a8.224,8.224,0,0,0-3-2.991h-.019a15.009,15.009,0,0,0-3.365-1.3,67.261,67.261,0,0,0-10.588-2.239C29.028,95.767,20.307,94.36,12.1,91.2,7.735,89.516,3.541,87.594-.05,84.07c.178.824.228,1.251.365,1.654A16.716,16.716,0,0,0,9.862,95.977a83.6,83.6,0,0,0,12.731,3.976c4.335,1.06,8.827,1.692,13.259,2.468,1.246.216,2.529.273,4.3.454-2.941.894-18.608-.465-28.755-2.3,3.418,4.035,8.2,5.759,13.481,6.131,5.036.355,10.13.076,15.295.26l-17.575,2.4a16.182,16.182,0,0,0,10.838,2.489c3.689-.5,7.267-1.637,11.095-2.279L33.4,115.233c3.536,2.782,8.121,1.775,14.376-3.038l-4.453,6.266c3.3,1.28,5.886.228,9.743-4.177-.243,3.716-2.279,6.308-4.684,9.154a25.7,25.7,0,0,0,7.567,1.4,25.748,25.748,0,0,0,7.569-1.4c-2.41-2.848-4.441-5.438-4.684-9.154,3.853,4.4,6.445,5.451,9.743,4.177l-4.453-6.266c6.255,4.806,10.84,5.812,14.376,3.038L67.37,109.58c3.828.638,7.405,1.772,11.095,2.279A16.182,16.182,0,0,0,89.3,109.369l-17.575-2.4c5.165-.19,10.253.095,15.295-.26,5.29-.38,10.079-2.089,13.481-6.131-10.147,1.832-25.814,3.192-28.755,2.3,1.77-.19,3.051-.237,4.3-.454,4.432-.773,8.915-1.4,13.259-2.468a83.125,83.125,0,0,0,12.731-3.976,16.708,16.708,0,0,0,9.545-10.253c.139-.4.19-.83.366-1.654C108.38,87.592,104.2,89.516,99.825,91.2Z" transform="translate(0.05 -67.691)"/></g></g></svg>